# xmcd
#
# Track frame offsets: 
#        150
#        25005
#        50825
#        72678
#        93503
#        110525
#        131693
#        157978
#        177743
#        200748
#
# Disc length: 3041 seconds
#
# Revision: 0
# Processed by: cddbd v1.5.2PL0 Copyright (c) Steve Scherf et al.
# Submitted via: ExactAudioCopy v1.0b3
#
DISCID=970bdf0a
DTITLE=Various Artist - Bong Co May
DYEAR=1995
DGENRE=
TTITLE0=Thai Chau - Xin yeu toi bang tinh nguoi
TTITLE1=My Huyen - Hoa no ve dem
TTITLE2=Hoang Tam - Buom trang
TTITLE3=Phi Nhung - Bong co may
TTITLE4=Chung Tu Luu - Mot lan dang do
TTITLE5=Huong Lan - Thiep hong anh viet ten em
TTITLE6=Chung Tu Luu - Hai vi sao lac
TTITLE7=Dai Trang - Chuyen tinh La Lan
TTITLE8=Hoang Tam - Pho dem
TTITLE9=Phi Nhung - Ai kho vi ai
EXTD=
EXTT0=
EXTT1=
EXTT2=
EXTT3=
EXTT4=
EXTT5=
EXTT6=
EXTT7=
EXTT8=
EXTT9=
PLAYORDER=
